<?xml version="1.0" standalone="no"?>
<!DOCTYPE svg PUBLIC "-//W3C//DTD SVG 20010904//EN"
 "http://www.w3.org/TR/2001/REC-SVG-20010904/DTD/svg10.dtd">
<svg version="1.0" xmlns="http://www.w3.org/2000/svg"
 width="76.000000pt" height="76.000000pt" viewBox="0 0 76.000000 76.000000"
 preserveAspectRatio="xMidYMid meet">

<g transform="translate(0.000000,76.000000) scale(0.100000,-0.100000)"
fill="#000000" stroke="none">
<path d="M0 380 l0 -380 380 0 380 0 0 380 0 380 -380 0 -380 0 0 -380z m345
143 c28 -40 54 -75 56 -78 3 -3 36 31 73 75 58 68 96 98 96 74 0 -6 -55 -72
-132 -160 -18 -20 -16 -23 67 -144 47 -68 85 -124 85 -124 0 -1 -29 1 -66 2
l-65 4 -52 79 c-29 43 -55 77 -58 76 -3 -1 -36 -36 -72 -78 -36 -42 -76 -79
-87 -82 -25 -7 -24 -5 65 98 34 39 65 76 69 83 4 7 -21 54 -66 120 -41 59 -78
113 -82 120 -6 10 6 12 55 10 l63 -3 51 -72z"/>
<path d="M262 508 c25 -35 84 -120 133 -190 79 -114 92 -128 118 -128 l29 0
-58 82 c-217 312 -206 298 -237 298 l-29 0 44 -62z"/>
</g>
</svg>
